<svg width="277" height="300" viewBox="0 0 277 300" fill="none" xmlns="http://www.w3.org/2000/svg">
<mask id="path-1-outside-1_13_11" maskUnits="userSpaceOnUse" x="0.821106" y="56" width="128" height="169" fill="black">
<rect fill="white" x="0.821106" y="56" width="128" height="169"/>
<path d="M8.90153 87.75C8.90153 80.5833 10.9849 74.9167 15.1515 70.75C19.3182 66.5833 24.9849 64.5 32.1515 64.5H114.652C115.818 66.3333 116.818 68.75 117.652 71.75C118.652 74.75 119.152 77.9167 119.152 81.25C119.152 87.5833 117.735 92.0833 114.902 94.75C112.235 97.4167 108.652 98.75 104.152 98.75H51.4015V122H107.652C108.818 123.833 109.818 126.25 110.652 129.25C111.652 132.083 112.152 135.167 112.152 138.5C112.152 144.833 110.818 149.333 108.152 152C105.485 154.667 101.902 156 97.4015 156H51.4015V182.25H115.652C116.818 184.083 117.818 186.5 118.652 189.5C119.652 192.5 120.152 195.667 120.152 199C120.152 205.333 118.735 209.917 115.902 212.75C113.235 215.417 109.652 216.75 105.152 216.75H32.1515C24.9849 216.75 19.3182 214.667 15.1515 210.5C10.9849 206.333 8.90153 200.667 8.90153 193.5V87.75Z"/>
</mask>
<path d="M8.90153 87.75C8.90153 80.5833 10.9849 74.9167 15.1515 70.75C19.3182 66.5833 24.9849 64.5 32.1515 64.5H114.652C115.818 66.3333 116.818 68.75 117.652 71.75C118.652 74.75 119.152 77.9167 119.152 81.25C119.152 87.5833 117.735 92.0833 114.902 94.75C112.235 97.4167 108.652 98.75 104.152 98.75H51.4015V122H107.652C108.818 123.833 109.818 126.25 110.652 129.25C111.652 132.083 112.152 135.167 112.152 138.5C112.152 144.833 110.818 149.333 108.152 152C105.485 154.667 101.902 156 97.4015 156H51.4015V182.25H115.652C116.818 184.083 117.818 186.5 118.652 189.5C119.652 192.5 120.152 195.667 120.152 199C120.152 205.333 118.735 209.917 115.902 212.75C113.235 215.417 109.652 216.75 105.152 216.75H32.1515C24.9849 216.75 19.3182 214.667 15.1515 210.5C10.9849 206.333 8.90153 200.667 8.90153 193.5V87.75Z" fill="#FF0000"/>
<path d="M114.652 64.5L121.401 60.205L119.043 56.5H114.652V64.5ZM117.652 71.75L109.943 73.8911L109.998 74.087L110.062 74.2798L117.652 71.75ZM114.902 94.75L109.419 88.9244L109.33 89.0075L109.245 89.0931L114.902 94.75ZM51.4015 98.75V90.75H43.4015V98.75H51.4015ZM51.4015 122H43.4015V130H51.4015V122ZM107.652 122L114.401 117.705L112.043 114H107.652V122ZM110.652 129.25L102.943 131.391L103.017 131.655L103.108 131.913L110.652 129.25ZM51.4015 156V148H43.4015V156H51.4015ZM51.4015 182.25H43.4015V190.25H51.4015V182.25ZM115.652 182.25L122.401 177.955L120.043 174.25H115.652V182.25ZM118.652 189.5L110.943 191.641L110.998 191.837L111.062 192.03L118.652 189.5ZM115.902 212.75L110.245 207.093L110.245 207.093L115.902 212.75ZM15.1515 210.5L20.8084 204.843L20.8084 204.843L15.1515 210.5ZM8.90153 87.75H16.9015C16.9015 82.2161 18.4556 78.7596 20.8084 76.4068L15.1515 70.75L9.49468 65.0931C3.51414 71.0737 0.901529 78.9505 0.901529 87.75H8.90153ZM15.1515 70.75L20.8084 76.4068C23.1612 74.0541 26.6177 72.5 32.1515 72.5V64.5V56.5C23.3521 56.5 15.4752 59.1126 9.49468 65.0931L15.1515 70.75ZM32.1515 64.5V72.5H114.652V64.5V56.5H32.1515V64.5ZM114.652 64.5L107.902 68.795C108.505 69.7421 109.238 71.3527 109.943 73.8911L117.652 71.75L125.36 69.6089C124.398 66.1473 123.131 62.9246 121.401 60.205L114.652 64.5ZM117.652 71.75L110.062 74.2798C110.776 76.4209 111.152 78.7297 111.152 81.25H119.152H127.152C127.152 77.1036 126.527 73.0791 125.241 69.2202L117.652 71.75ZM119.152 81.25H111.152C111.152 86.7126 109.88 88.4898 109.419 88.9244L114.902 94.75L120.384 100.576C125.589 95.6769 127.152 88.454 127.152 81.25H119.152ZM114.902 94.75L109.245 89.0931C108.363 89.9749 106.969 90.75 104.152 90.75V98.75V106.75C110.334 106.75 116.107 104.858 120.558 100.407L114.902 94.75ZM104.152 98.75V90.75H51.4015V98.75V106.75H104.152V98.75ZM51.4015 98.75H43.4015V122H51.4015H59.4015V98.75H51.4015ZM51.4015 122V130H107.652V122V114H51.4015V122ZM107.652 122L100.902 126.295C101.505 127.242 102.238 128.853 102.943 131.391L110.652 129.25L118.36 127.109C117.398 123.647 116.131 120.425 114.401 117.705L107.652 122ZM110.652 129.25L103.108 131.913C103.775 133.802 104.152 135.975 104.152 138.5H112.152H120.152C120.152 134.358 119.528 130.364 118.195 126.587L110.652 129.25ZM112.152 138.5H104.152C104.152 144.07 102.916 145.922 102.495 146.343L108.152 152L113.808 157.657C118.72 152.745 120.152 145.597 120.152 138.5H112.152ZM108.152 152L102.495 146.343C101.613 147.225 100.219 148 97.4015 148V156V164C103.584 164 109.357 162.108 113.808 157.657L108.152 152ZM97.4015 156V148H51.4015V156V164H97.4015V156ZM51.4015 156H43.4015V182.25H51.4015H59.4015V156H51.4015ZM51.4015 182.25V190.25H115.652V182.25V174.25H51.4015V182.25ZM115.652 182.25L108.902 186.545C109.505 187.492 110.238 189.103 110.943 191.641L118.652 189.5L126.36 187.359C125.398 183.897 124.131 180.675 122.401 177.955L115.652 182.25ZM118.652 189.5L111.062 192.03C111.776 194.171 112.152 196.48 112.152 199H120.152H128.152C128.152 194.854 127.527 190.829 126.241 186.97L118.652 189.5ZM120.152 199H112.152C112.152 204.403 110.905 206.433 110.245 207.093L115.902 212.75L121.558 218.407C126.565 213.401 128.152 206.264 128.152 199H120.152ZM115.902 212.75L110.245 207.093C109.363 207.975 107.969 208.75 105.152 208.75V216.75V224.75C111.334 224.75 117.107 222.858 121.558 218.407L115.902 212.75ZM105.152 216.75V208.75H32.1515V216.75V224.75H105.152V216.75ZM32.1515 216.75V208.75C26.6177 208.75 23.1612 207.196 20.8084 204.843L15.1515 210.5L9.49467 216.157C15.4752 222.137 23.3521 224.75 32.1515 224.75V216.75ZM15.1515 210.5L20.8084 204.843C18.4556 202.49 16.9015 199.034 16.9015 193.5H8.90153H0.901529C0.901529 202.299 3.51414 210.176 9.49467 216.157L15.1515 210.5ZM8.90153 193.5H16.9015V87.75H8.90153H0.901529V193.5H8.90153Z" fill="black" mask="url(#path-1-outside-1_13_11)"/>
<mask id="path-3-outside-2_13_11" maskUnits="userSpaceOnUse" x="127.163" y="54" width="150" height="172" fill="black">
<rect fill="white" x="127.163" y="54" width="150" height="172"/>
<path d="M179.671 159.75V215C177.838 215.5 174.921 216 170.921 216.5C166.921 217 163.005 217.25 159.171 217.25C155.338 217.25 151.921 216.917 148.921 216.25C146.088 215.75 143.671 214.75 141.671 213.25C139.671 211.75 138.171 209.667 137.171 207C136.171 204.333 135.671 200.833 135.671 196.5V64.5C137.505 64.1667 140.421 63.75 144.421 63.25C148.421 62.5833 152.255 62.25 155.921 62.25C159.755 62.25 163.088 62.5833 165.921 63.25C168.921 63.75 171.421 64.75 173.421 66.25C175.421 67.75 176.921 69.8333 177.921 72.5C178.921 75.1667 179.421 78.6667 179.421 83V122.75L231.421 63C242.755 63 250.838 65.1667 255.671 69.5C260.671 73.6667 263.171 78.6667 263.171 84.5C263.171 88.8333 262.088 92.9167 259.921 96.75C257.755 100.583 254.255 104.917 249.421 109.75L218.171 141C222.338 145.667 226.671 150.5 231.171 155.5C235.838 160.5 240.338 165.417 244.671 170.25C249.171 174.917 253.421 179.417 257.421 183.75C261.588 188.083 265.171 191.833 268.171 195C268.171 198.667 267.505 201.917 266.171 204.75C264.838 207.583 263.005 210 260.671 212C258.505 214 256.005 215.5 253.171 216.5C250.338 217.5 247.338 218 244.171 218C237.338 218 231.755 216.333 227.421 213C223.088 209.5 218.921 205.417 214.921 200.75L179.671 159.75Z"/>
</mask>
<path d="M179.671 159.75V215C177.838 215.5 174.921 216 170.921 216.5C166.921 217 163.005 217.25 159.171 217.25C155.338 217.25 151.921 216.917 148.921 216.25C146.088 215.75 143.671 214.75 141.671 213.25C139.671 211.75 138.171 209.667 137.171 207C136.171 204.333 135.671 200.833 135.671 196.5V64.5C137.505 64.1667 140.421 63.75 144.421 63.25C148.421 62.5833 152.255 62.25 155.921 62.25C159.755 62.25 163.088 62.5833 165.921 63.25C168.921 63.75 171.421 64.75 173.421 66.25C175.421 67.75 176.921 69.8333 177.921 72.5C178.921 75.1667 179.421 78.6667 179.421 83V122.75L231.421 63C242.755 63 250.838 65.1667 255.671 69.5C260.671 73.6667 263.171 78.6667 263.171 84.5C263.171 88.8333 262.088 92.9167 259.921 96.75C257.755 100.583 254.255 104.917 249.421 109.75L218.171 141C222.338 145.667 226.671 150.5 231.171 155.5C235.838 160.5 240.338 165.417 244.671 170.25C249.171 174.917 253.421 179.417 257.421 183.75C261.588 188.083 265.171 191.833 268.171 195C268.171 198.667 267.505 201.917 266.171 204.75C264.838 207.583 263.005 210 260.671 212C258.505 214 256.005 215.5 253.171 216.5C250.338 217.5 247.338 218 244.171 218C237.338 218 231.755 216.333 227.421 213C223.088 209.5 218.921 205.417 214.921 200.75L179.671 159.75Z" fill="#0077FF"/>
<path d="M179.671 159.75L185.738 154.535L171.671 138.174V159.75H179.671ZM179.671 215L181.776 222.718L187.671 221.11V215H179.671ZM170.921 216.5L171.914 224.438L171.914 224.438L170.921 216.5ZM148.921 216.25L150.657 208.441L150.485 208.402L150.312 208.372L148.921 216.25ZM141.671 213.25L136.871 219.65L136.871 219.65L141.671 213.25ZM137.171 207L129.681 209.809L129.681 209.809L137.171 207ZM135.671 64.5L134.24 56.629L127.671 57.8234V64.5H135.671ZM144.421 63.25L145.414 71.1882L145.576 71.168L145.737 71.1412L144.421 63.25ZM165.921 63.25L164.089 71.0373L164.346 71.0978L164.606 71.1412L165.921 63.25ZM173.421 66.25L168.621 72.65L168.621 72.65L173.421 66.25ZM177.921 72.5L170.431 75.309L170.431 75.309L177.921 72.5ZM179.421 122.75H171.421V144.128L185.456 128.002L179.421 122.75ZM231.421 63V55H227.778L225.387 57.7481L231.421 63ZM255.671 69.5L250.331 75.4565L250.439 75.5531L250.55 75.6458L255.671 69.5ZM259.921 96.75L252.957 92.8135L252.957 92.8135L259.921 96.75ZM249.421 109.75L255.078 115.407L255.078 115.407L249.421 109.75ZM218.171 141L212.514 135.343L207.169 140.689L212.204 146.328L218.171 141ZM231.171 155.5L225.225 160.852L225.273 160.906L225.323 160.959L231.171 155.5ZM244.671 170.25L238.715 175.59L238.812 175.699L238.913 175.803L244.671 170.25ZM257.421 183.75L251.543 189.176L251.598 189.236L251.655 189.295L257.421 183.75ZM268.171 195H276.171V191.812L273.979 189.498L268.171 195ZM266.171 204.75L258.933 201.344L258.933 201.344L266.171 204.75ZM260.671 212L255.465 205.926L255.353 206.022L255.245 206.122L260.671 212ZM227.421 213L222.395 219.224L222.468 219.283L222.544 219.341L227.421 213ZM214.921 200.75L220.995 195.544L220.988 195.535L214.921 200.75ZM179.671 159.75H171.671V215H179.671H187.671V159.75H179.671ZM179.671 215L177.566 207.282C176.314 207.623 173.873 208.069 169.929 208.562L170.921 216.5L171.914 224.438C175.97 223.931 179.362 223.377 181.776 222.718L179.671 215ZM170.921 216.5L169.929 208.562C166.241 209.023 162.656 209.25 159.171 209.25V217.25V225.25C163.353 225.25 167.601 224.977 171.914 224.438L170.921 216.5ZM159.171 217.25V209.25C155.785 209.25 152.967 208.954 150.657 208.441L148.921 216.25L147.186 224.059C150.875 224.879 154.891 225.25 159.171 225.25V217.25ZM148.921 216.25L150.312 208.372C148.528 208.057 147.325 207.49 146.471 206.85L141.671 213.25L136.871 219.65C140.018 222.01 143.648 223.443 147.531 224.128L148.921 216.25ZM141.671 213.25L146.471 206.85C145.856 206.388 145.203 205.633 144.662 204.191L137.171 207L129.681 209.809C131.14 213.701 133.487 217.112 136.871 219.65L141.671 213.25ZM137.171 207L144.662 204.191C144.127 202.764 143.671 200.322 143.671 196.5H135.671H127.671C127.671 201.344 128.216 205.903 129.681 209.809L137.171 207ZM135.671 196.5H143.671V64.5H135.671H127.671V196.5H135.671ZM135.671 64.5L137.102 72.371C138.703 72.08 141.432 71.6859 145.414 71.1882L144.421 63.25L143.429 55.3118C139.41 55.8141 136.307 56.2533 134.24 56.629L135.671 64.5ZM144.421 63.25L145.737 71.1412C149.347 70.5394 152.739 70.25 155.921 70.25V62.25V54.25C151.771 54.25 147.496 54.6272 143.106 55.3588L144.421 63.25ZM155.921 62.25V70.25C159.32 70.25 162.011 70.5483 164.089 71.0373L165.921 63.25L167.754 55.4627C164.165 54.6183 160.189 54.25 155.921 54.25V62.25ZM165.921 63.25L164.606 71.1412C166.612 71.4755 167.846 72.0683 168.621 72.65L173.421 66.25L178.221 59.85C174.997 57.4317 171.23 56.0245 167.236 55.3588L165.921 63.25ZM173.421 66.25L168.621 72.65C169.237 73.1116 169.89 73.8673 170.431 75.309L177.921 72.5L185.412 69.691C183.953 65.7994 181.606 62.3884 178.221 59.85L173.421 66.25ZM177.921 72.5L170.431 75.309C170.966 76.7363 171.421 79.1777 171.421 83H179.421H187.421C187.421 78.1557 186.877 73.597 185.412 69.691L177.921 72.5ZM179.421 83H171.421V122.75H179.421H187.421V83H179.421ZM179.421 122.75L185.456 128.002L237.456 68.2519L231.421 63L225.387 57.7481L173.387 117.498L179.421 122.75ZM231.421 63V71C242.124 71 247.725 73.1204 250.331 75.4565L255.671 69.5L261.012 63.5434C253.951 57.2129 243.385 55 231.421 55V63ZM255.671 69.5L250.55 75.6458C253.964 78.4909 255.171 81.3344 255.171 84.5H263.171H271.171C271.171 75.9989 267.379 68.8424 260.793 63.3542L255.671 69.5ZM263.171 84.5H255.171C255.171 87.4307 254.456 90.1608 252.957 92.8135L259.921 96.75L266.886 100.686C269.72 95.6725 271.171 90.236 271.171 84.5H263.171ZM259.921 96.75L252.957 92.8135C251.286 95.7705 248.335 99.5228 243.764 104.093L249.421 109.75L255.078 115.407C260.174 110.311 264.224 105.396 266.886 100.686L259.921 96.75ZM249.421 109.75L243.764 104.093L212.514 135.343L218.171 141L223.828 146.657L255.078 115.407L249.421 109.75ZM218.171 141L212.204 146.328C216.378 151.003 220.718 155.844 225.225 160.852L231.171 155.5L237.118 150.148C232.624 145.156 228.298 140.33 224.139 135.672L218.171 141ZM231.171 155.5L225.323 160.959C229.955 165.922 234.419 170.799 238.715 175.59L244.671 170.25L250.628 164.91C246.257 160.034 241.721 155.078 237.02 150.041L231.171 155.5ZM244.671 170.25L238.913 175.803C243.376 180.432 247.586 184.89 251.543 189.176L257.421 183.75L263.3 178.324C259.257 173.944 254.967 169.401 250.43 164.697L244.671 170.25ZM257.421 183.75L251.655 189.295C255.812 193.619 259.381 197.354 262.364 200.502L268.171 195L273.979 189.498C270.961 186.313 267.364 182.548 263.188 178.205L257.421 183.75ZM268.171 195H260.171C260.171 197.689 259.686 199.743 258.933 201.344L266.171 204.75L273.41 208.156C275.323 204.09 276.171 199.644 276.171 195H268.171ZM266.171 204.75L258.933 201.344C258.071 203.174 256.923 204.676 255.465 205.926L260.671 212L265.878 218.074C269.086 215.324 271.605 211.993 273.41 208.156L266.171 204.75ZM260.671 212L255.245 206.122C253.892 207.37 252.337 208.311 250.509 208.956L253.171 216.5L255.834 224.044C259.672 222.689 263.117 220.63 266.098 217.878L260.671 212ZM253.171 216.5L250.509 208.956C248.576 209.638 246.48 210 244.171 210V218V226C248.196 226 252.1 225.362 255.834 224.044L253.171 216.5ZM244.171 218V210C238.653 210 234.915 208.672 232.299 206.659L227.421 213L222.544 219.341C228.594 223.995 236.023 226 244.171 226V218ZM227.421 213L232.448 206.776C228.531 203.612 224.71 199.878 220.995 195.544L214.921 200.75L208.847 205.956C213.132 210.956 217.645 215.388 222.395 219.224L227.421 213ZM214.921 200.75L220.988 195.535L185.738 154.535L179.671 159.75L173.605 164.965L208.855 205.965L214.921 200.75Z" fill="black" mask="url(#path-3-outside-2_13_11)"/>
</svg>
