<svg width="860" height="300" viewBox="0 0 860 300" fill="none" xmlns="http://www.w3.org/2000/svg">
<mask id="path-1-outside-1_3_26" maskUnits="userSpaceOnUse" x="0.821106" y="56" width="128" height="169" fill="black">
<rect fill="white" x="0.821106" y="56" width="128" height="169"/>
<path d="M8.90153 87.75C8.90153 80.5833 10.9849 74.9167 15.1515 70.75C19.3182 66.5833 24.9849 64.5 32.1515 64.5H114.652C115.818 66.3333 116.818 68.75 117.652 71.75C118.652 74.75 119.152 77.9167 119.152 81.25C119.152 87.5833 117.735 92.0833 114.902 94.75C112.235 97.4167 108.652 98.75 104.152 98.75H51.4015V122H107.652C108.818 123.833 109.818 126.25 110.652 129.25C111.652 132.083 112.152 135.167 112.152 138.5C112.152 144.833 110.818 149.333 108.152 152C105.485 154.667 101.902 156 97.4015 156H51.4015V182.25H115.652C116.818 184.083 117.818 186.5 118.652 189.5C119.652 192.5 120.152 195.667 120.152 199C120.152 205.333 118.735 209.917 115.902 212.75C113.235 215.417 109.652 216.75 105.152 216.75H32.1515C24.9849 216.75 19.3182 214.667 15.1515 210.5C10.9849 206.333 8.90153 200.667 8.90153 193.5V87.75Z"/>
</mask>
<path d="M8.90153 87.75C8.90153 80.5833 10.9849 74.9167 15.1515 70.75C19.3182 66.5833 24.9849 64.5 32.1515 64.5H114.652C115.818 66.3333 116.818 68.75 117.652 71.75C118.652 74.75 119.152 77.9167 119.152 81.25C119.152 87.5833 117.735 92.0833 114.902 94.75C112.235 97.4167 108.652 98.75 104.152 98.75H51.4015V122H107.652C108.818 123.833 109.818 126.25 110.652 129.25C111.652 132.083 112.152 135.167 112.152 138.5C112.152 144.833 110.818 149.333 108.152 152C105.485 154.667 101.902 156 97.4015 156H51.4015V182.25H115.652C116.818 184.083 117.818 186.5 118.652 189.5C119.652 192.5 120.152 195.667 120.152 199C120.152 205.333 118.735 209.917 115.902 212.75C113.235 215.417 109.652 216.75 105.152 216.75H32.1515C24.9849 216.75 19.3182 214.667 15.1515 210.5C10.9849 206.333 8.90153 200.667 8.90153 193.5V87.75Z" fill="#FF0000"/>
<path d="M114.652 64.5L121.401 60.205L119.043 56.5H114.652V64.5ZM117.652 71.75L109.943 73.8911L109.998 74.087L110.062 74.2798L117.652 71.75ZM114.902 94.75L109.419 88.9244L109.33 89.0075L109.245 89.0931L114.902 94.75ZM51.4015 98.75V90.75H43.4015V98.75H51.4015ZM51.4015 122H43.4015V130H51.4015V122ZM107.652 122L114.401 117.705L112.043 114H107.652V122ZM110.652 129.25L102.943 131.391L103.017 131.655L103.108 131.913L110.652 129.25ZM51.4015 156V148H43.4015V156H51.4015ZM51.4015 182.25H43.4015V190.25H51.4015V182.25ZM115.652 182.25L122.401 177.955L120.043 174.25H115.652V182.25ZM118.652 189.5L110.943 191.641L110.998 191.837L111.062 192.03L118.652 189.5ZM115.902 212.75L110.245 207.093L110.245 207.093L115.902 212.75ZM15.1515 210.5L20.8084 204.843L20.8084 204.843L15.1515 210.5ZM8.90153 87.75H16.9015C16.9015 82.2161 18.4556 78.7596 20.8084 76.4068L15.1515 70.75L9.49468 65.0931C3.51414 71.0737 0.901529 78.9505 0.901529 87.75H8.90153ZM15.1515 70.75L20.8084 76.4068C23.1612 74.0541 26.6177 72.5 32.1515 72.5V64.5V56.5C23.3521 56.5 15.4752 59.1126 9.49468 65.0931L15.1515 70.75ZM32.1515 64.5V72.5H114.652V64.5V56.5H32.1515V64.5ZM114.652 64.5L107.902 68.795C108.505 69.7421 109.238 71.3527 109.943 73.8911L117.652 71.75L125.36 69.6089C124.398 66.1473 123.131 62.9246 121.401 60.205L114.652 64.5ZM117.652 71.75L110.062 74.2798C110.776 76.4209 111.152 78.7297 111.152 81.25H119.152H127.152C127.152 77.1036 126.527 73.0791 125.241 69.2202L117.652 71.75ZM119.152 81.25H111.152C111.152 86.7126 109.88 88.4898 109.419 88.9244L114.902 94.75L120.384 100.576C125.589 95.6769 127.152 88.454 127.152 81.25H119.152ZM114.902 94.75L109.245 89.0931C108.363 89.9749 106.969 90.75 104.152 90.75V98.75V106.75C110.334 106.75 116.107 104.858 120.558 100.407L114.902 94.75ZM104.152 98.75V90.75H51.4015V98.75V106.75H104.152V98.75ZM51.4015 98.75H43.4015V122H51.4015H59.4015V98.75H51.4015ZM51.4015 122V130H107.652V122V114H51.4015V122ZM107.652 122L100.902 126.295C101.505 127.242 102.238 128.853 102.943 131.391L110.652 129.25L118.36 127.109C117.398 123.647 116.131 120.425 114.401 117.705L107.652 122ZM110.652 129.25L103.108 131.913C103.775 133.802 104.152 135.975 104.152 138.5H112.152H120.152C120.152 134.358 119.528 130.364 118.195 126.587L110.652 129.25ZM112.152 138.5H104.152C104.152 144.07 102.916 145.922 102.495 146.343L108.152 152L113.808 157.657C118.72 152.745 120.152 145.597 120.152 138.5H112.152ZM108.152 152L102.495 146.343C101.613 147.225 100.219 148 97.4015 148V156V164C103.584 164 109.357 162.108 113.808 157.657L108.152 152ZM97.4015 156V148H51.4015V156V164H97.4015V156ZM51.4015 156H43.4015V182.25H51.4015H59.4015V156H51.4015ZM51.4015 182.25V190.25H115.652V182.25V174.25H51.4015V182.25ZM115.652 182.25L108.902 186.545C109.505 187.492 110.238 189.103 110.943 191.641L118.652 189.5L126.36 187.359C125.398 183.897 124.131 180.675 122.401 177.955L115.652 182.25ZM118.652 189.5L111.062 192.03C111.776 194.171 112.152 196.48 112.152 199H120.152H128.152C128.152 194.854 127.527 190.829 126.241 186.97L118.652 189.5ZM120.152 199H112.152C112.152 204.403 110.905 206.433 110.245 207.093L115.902 212.75L121.558 218.407C126.565 213.401 128.152 206.264 128.152 199H120.152ZM115.902 212.75L110.245 207.093C109.363 207.975 107.969 208.75 105.152 208.75V216.75V224.75C111.334 224.75 117.107 222.858 121.558 218.407L115.902 212.75ZM105.152 216.75V208.75H32.1515V216.75V224.75H105.152V216.75ZM32.1515 216.75V208.75C26.6177 208.75 23.1612 207.196 20.8084 204.843L15.1515 210.5L9.49467 216.157C15.4752 222.137 23.3521 224.75 32.1515 224.75V216.75ZM15.1515 210.5L20.8084 204.843C18.4556 202.49 16.9015 199.034 16.9015 193.5H8.90153H0.901529C0.901529 202.299 3.51414 210.176 9.49467 216.157L15.1515 210.5ZM8.90153 193.5H16.9015V87.75H8.90153H0.901529V193.5H8.90153Z" fill="black" mask="url(#path-1-outside-1_3_26)"/>
<mask id="path-3-outside-2_3_26" maskUnits="userSpaceOnUse" x="118" y="42" width="143" height="186" fill="black">
<rect fill="white" x="118" y="42" width="143" height="186"/>
<path d="M126.841 155.25C126.841 144.25 128.508 134.75 131.841 126.75C135.174 118.583 139.758 111.833 145.591 106.5C151.591 101.167 158.508 97.25 166.341 94.75C174.341 92.0833 182.924 90.75 192.091 90.75C195.424 90.75 198.674 91.0833 201.841 91.75C205.008 92.25 207.591 92.9167 209.591 93.75V53.25C211.258 52.75 213.924 52.25 217.591 51.75C221.258 51.0833 225.008 50.75 228.841 50.75C232.508 50.75 235.758 51 238.591 51.5C241.591 52 244.091 53 246.091 54.5C248.091 56 249.591 58.0833 250.591 60.75C251.591 63.25 252.091 66.5833 252.091 70.75V189.25C252.091 197.083 248.424 203.333 241.091 208C236.258 211.167 230.008 213.917 222.341 216.25C214.674 218.75 205.841 220 195.841 220C185.008 220 175.258 218.5 166.591 215.5C158.091 212.5 150.841 208.167 144.841 202.5C139.008 196.833 134.508 190.083 131.341 182.25C128.341 174.25 126.841 165.25 126.841 155.25ZM197.841 124C188.841 124 181.924 126.583 177.091 131.75C172.258 136.917 169.841 144.75 169.841 155.25C169.841 165.583 172.091 173.417 176.591 178.75C181.091 183.917 187.591 186.5 196.091 186.5C199.091 186.5 201.758 186.083 204.091 185.25C206.591 184.25 208.508 183.167 209.841 182V127C206.508 125 202.508 124 197.841 124Z"/>
</mask>
<path d="M126.841 155.25C126.841 144.25 128.508 134.75 131.841 126.75C135.174 118.583 139.758 111.833 145.591 106.5C151.591 101.167 158.508 97.25 166.341 94.75C174.341 92.0833 182.924 90.75 192.091 90.75C195.424 90.75 198.674 91.0833 201.841 91.75C205.008 92.25 207.591 92.9167 209.591 93.75V53.25C211.258 52.75 213.924 52.25 217.591 51.75C221.258 51.0833 225.008 50.75 228.841 50.75C232.508 50.75 235.758 51 238.591 51.5C241.591 52 244.091 53 246.091 54.5C248.091 56 249.591 58.0833 250.591 60.75C251.591 63.25 252.091 66.5833 252.091 70.75V189.25C252.091 197.083 248.424 203.333 241.091 208C236.258 211.167 230.008 213.917 222.341 216.25C214.674 218.75 205.841 220 195.841 220C185.008 220 175.258 218.5 166.591 215.5C158.091 212.5 150.841 208.167 144.841 202.5C139.008 196.833 134.508 190.083 131.341 182.25C128.341 174.25 126.841 165.25 126.841 155.25ZM197.841 124C188.841 124 181.924 126.583 177.091 131.75C172.258 136.917 169.841 144.75 169.841 155.25C169.841 165.583 172.091 173.417 176.591 178.75C181.091 183.917 187.591 186.5 196.091 186.5C199.091 186.5 201.758 186.083 204.091 185.25C206.591 184.25 208.508 183.167 209.841 182V127C206.508 125 202.508 124 197.841 124Z" fill="#FE8C00"/>
<path d="M131.841 126.75L139.226 129.827L139.237 129.8L139.248 129.773L131.841 126.75ZM145.591 106.5L140.276 100.521L140.234 100.558L140.193 100.596L145.591 106.5ZM166.341 94.75L168.773 102.371L168.822 102.356L168.871 102.339L166.341 94.75ZM201.841 91.75L200.193 99.5784L200.392 99.6203L200.593 99.6521L201.841 91.75ZM209.591 93.75L206.514 101.135L217.591 105.75V93.75H209.591ZM209.591 53.25L207.292 45.5874L201.591 47.2978V53.25H209.591ZM217.591 51.75L218.672 59.6766L218.848 59.6527L219.022 59.621L217.591 51.75ZM238.591 51.5L237.201 59.3783L237.238 59.3849L237.276 59.3911L238.591 51.5ZM246.091 54.5L241.291 60.9L241.291 60.9L246.091 54.5ZM250.591 60.75L243.101 63.559L243.131 63.6404L243.163 63.7211L250.591 60.75ZM241.091 208L236.796 201.251L236.751 201.279L236.707 201.308L241.091 208ZM222.341 216.25L220.012 208.597L219.936 208.62L219.861 208.644L222.341 216.25ZM166.591 215.5L163.929 223.044L163.951 223.052L163.974 223.06L166.591 215.5ZM144.841 202.5L139.267 208.238L139.307 208.277L139.348 208.316L144.841 202.5ZM131.341 182.25L123.851 185.059L123.886 185.154L123.924 185.248L131.341 182.25ZM177.091 131.75L182.933 137.215L182.933 137.215L177.091 131.75ZM176.591 178.75L170.477 183.909L170.517 183.957L170.558 184.004L176.591 178.75ZM204.091 185.25L206.782 192.784L206.923 192.734L207.062 192.678L204.091 185.25ZM209.841 182L215.109 188.021L217.841 185.63V182H209.841ZM209.841 127H217.841V122.47L213.957 120.14L209.841 127ZM126.841 155.25H134.841C134.841 145.033 136.392 136.628 139.226 129.827L131.841 126.75L124.457 123.673C120.624 132.872 118.841 143.467 118.841 155.25H126.841ZM131.841 126.75L139.248 129.773C142.186 122.576 146.127 116.849 150.989 112.404L145.591 106.5L140.193 100.596C133.388 106.817 128.163 114.591 124.434 123.727L131.841 126.75ZM145.591 106.5L150.906 112.479C156.05 107.907 161.979 104.54 168.773 102.371L166.341 94.75L163.909 87.1287C155.037 89.9601 147.132 94.4263 140.276 100.521L145.591 106.5ZM166.341 94.75L168.871 102.339C175.987 99.9673 183.71 98.75 192.091 98.75V90.75V82.75C182.139 82.75 172.695 84.1993 163.811 87.1605L166.341 94.75ZM192.091 90.75V98.75C194.887 98.75 197.584 99.0292 200.193 99.5784L201.841 91.75L203.489 83.9216C199.765 83.1375 195.962 82.75 192.091 82.75V90.75ZM201.841 91.75L200.593 99.6521C203.401 100.095 205.309 100.632 206.514 101.135L209.591 93.75L212.668 86.3654C209.874 85.2011 206.614 84.4046 203.089 83.8479L201.841 91.75ZM209.591 93.75H217.591V53.25H209.591H201.591V93.75H209.591ZM209.591 53.25L211.89 60.9126C212.922 60.6031 215.066 60.1684 218.672 59.6766L217.591 51.75L216.51 43.8234C212.783 44.3316 209.594 44.8969 207.292 45.5874L209.591 53.25ZM217.591 51.75L219.022 59.621C222.203 59.0426 225.474 58.75 228.841 58.75V50.75V42.75C224.542 42.75 220.312 43.1241 216.16 43.879L217.591 51.75ZM228.841 50.75V58.75C232.162 58.75 234.931 58.9777 237.201 59.3783L238.591 51.5L239.981 43.6217C236.584 43.0223 232.854 42.75 228.841 42.75V50.75ZM238.591 51.5L237.276 59.3911C239.282 59.7255 240.515 60.3183 241.291 60.9L246.091 54.5L250.891 48.1C247.667 45.6817 243.9 44.2745 239.906 43.6088L238.591 51.5ZM246.091 54.5L241.291 60.9C241.907 61.3616 242.56 62.1173 243.101 63.559L250.591 60.75L258.082 57.941C256.622 54.0494 254.276 50.6384 250.891 48.1L246.091 54.5ZM250.591 60.75L243.163 63.7211C243.636 64.9039 244.091 67.1037 244.091 70.75H252.091H260.091C260.091 66.063 259.546 61.5961 258.019 57.7789L250.591 60.75ZM252.091 70.75H244.091V189.25H252.091H260.091V70.75H252.091ZM252.091 189.25H244.091C244.091 194.01 242.122 197.861 236.796 201.251L241.091 208L245.386 214.749C254.727 208.805 260.091 200.157 260.091 189.25H252.091ZM241.091 208L236.707 201.308C232.702 203.932 227.21 206.406 220.012 208.597L222.341 216.25L224.67 223.903C232.806 221.427 239.814 218.401 245.475 214.692L241.091 208ZM222.341 216.25L219.861 208.644C213.161 210.829 205.193 212 195.841 212V220V228C206.49 228 216.188 226.671 224.821 223.856L222.341 216.25ZM195.841 220V212C185.741 212 176.896 210.601 169.208 207.94L166.591 215.5L163.974 223.06C173.62 226.399 184.275 228 195.841 228V220ZM166.591 215.5L169.254 207.956C161.709 205.293 155.449 201.515 150.334 196.684L144.841 202.5L139.348 208.316C146.233 214.818 154.473 219.707 163.929 223.044L166.591 215.5ZM144.841 202.5L150.415 196.762C145.411 191.901 141.524 186.095 138.758 179.252L131.341 182.25L123.924 185.248C127.491 194.072 132.604 201.766 139.267 208.238L144.841 202.5ZM131.341 182.25L138.832 179.441C136.221 172.478 134.841 164.451 134.841 155.25H126.841H118.841C118.841 166.049 120.462 176.022 123.851 185.059L131.341 182.25ZM197.841 124V116C187.266 116 177.982 119.087 171.249 126.285L177.091 131.75L182.933 137.215C185.866 134.08 190.416 132 197.841 132V124ZM177.091 131.75L171.249 126.285C164.487 133.513 161.841 143.686 161.841 155.25H169.841H177.841C177.841 145.814 180.029 140.32 182.933 137.215L177.091 131.75ZM169.841 155.25H161.841C161.841 166.591 164.292 176.578 170.477 183.909L176.591 178.75L182.705 173.591C179.891 170.255 177.841 164.575 177.841 155.25H169.841ZM176.591 178.75L170.558 184.004C176.933 191.324 185.881 194.5 196.091 194.5V186.5V178.5C189.302 178.5 185.249 176.51 182.624 173.496L176.591 178.75ZM196.091 186.5V194.5C199.821 194.5 203.425 193.983 206.782 192.784L204.091 185.25L201.4 177.716C200.091 178.184 198.361 178.5 196.091 178.5V186.5ZM204.091 185.25L207.062 192.678C210.012 191.498 212.838 190.008 215.109 188.021L209.841 182L204.573 175.979C204.178 176.326 203.171 177.002 201.12 177.822L204.091 185.25ZM209.841 182H217.841V127H209.841H201.841V182H209.841ZM209.841 127L213.957 120.14C209.152 117.257 203.666 116 197.841 116V124V132C201.35 132 203.864 132.743 205.725 133.86L209.841 127Z" fill="black" mask="url(#path-3-outside-2_3_26)"/>
<mask id="path-5-outside-3_3_26" maskUnits="userSpaceOnUse" x="258.837" y="86" width="136" height="142" fill="black">
<rect fill="white" x="258.837" y="86" width="136" height="142"/>
<path d="M267.246 96.25C268.913 95.75 271.496 95.25 274.996 94.75C278.663 94.25 282.413 94 286.246 94C289.913 94 293.163 94.25 295.996 94.75C298.996 95.25 301.496 96.25 303.496 97.75C305.496 99.25 306.996 101.333 307.996 104C309.163 106.5 309.746 109.833 309.746 114V167.75C309.746 174.583 311.413 179.5 314.746 182.5C318.079 185.333 322.913 186.75 329.246 186.75C333.079 186.75 336.163 186.417 338.496 185.75C340.996 185.083 342.913 184.417 344.246 183.75V96.25C345.913 95.75 348.496 95.25 351.996 94.75C355.663 94.25 359.413 94 363.246 94C366.913 94 370.163 94.25 372.996 94.75C375.996 95.25 378.496 96.25 380.496 97.75C382.496 99.25 383.996 101.333 384.996 104C386.163 106.5 386.746 109.833 386.746 114V190C386.746 198.333 383.246 204.583 376.246 208.75C370.413 212.417 363.413 215.167 355.246 217C347.246 219 338.496 220 328.996 220C319.996 220 311.663 219 303.996 217C296.496 215 289.996 211.917 284.496 207.75C278.996 203.583 274.746 198.25 271.746 191.75C268.746 185.083 267.246 177.083 267.246 167.75V96.25Z"/>
</mask>
<path d="M267.246 96.25C268.913 95.75 271.496 95.25 274.996 94.75C278.663 94.25 282.413 94 286.246 94C289.913 94 293.163 94.25 295.996 94.75C298.996 95.25 301.496 96.25 303.496 97.75C305.496 99.25 306.996 101.333 307.996 104C309.163 106.5 309.746 109.833 309.746 114V167.75C309.746 174.583 311.413 179.5 314.746 182.5C318.079 185.333 322.913 186.75 329.246 186.75C333.079 186.75 336.163 186.417 338.496 185.75C340.996 185.083 342.913 184.417 344.246 183.75V96.25C345.913 95.75 348.496 95.25 351.996 94.75C355.663 94.25 359.413 94 363.246 94C366.913 94 370.163 94.25 372.996 94.75C375.996 95.25 378.496 96.25 380.496 97.75C382.496 99.25 383.996 101.333 384.996 104C386.163 106.5 386.746 109.833 386.746 114V190C386.746 198.333 383.246 204.583 376.246 208.75C370.413 212.417 363.413 215.167 355.246 217C347.246 219 338.496 220 328.996 220C319.996 220 311.663 219 303.996 217C296.496 215 289.996 211.917 284.496 207.75C278.996 203.583 274.746 198.25 271.746 191.75C268.746 185.083 267.246 177.083 267.246 167.75V96.25Z" fill="#FF0000"/>
<path d="M267.246 96.25L264.947 88.5874L259.246 90.2977V96.25H267.246ZM274.996 94.75L273.915 86.8234L273.89 86.8268L273.865 86.8304L274.996 94.75ZM295.996 94.75L294.606 102.628L294.643 102.635L294.681 102.641L295.996 94.75ZM303.496 97.75L308.296 91.35L308.296 91.35L303.496 97.75ZM307.996 104L300.505 106.809L300.615 107.101L300.747 107.383L307.996 104ZM314.746 182.5L309.394 188.446L309.479 188.522L309.565 188.596L314.746 182.5ZM338.496 185.75L336.435 178.02L336.366 178.038L336.298 178.058L338.496 185.75ZM344.246 183.75L347.824 190.905L352.246 188.694V183.75H344.246ZM344.246 96.25L341.947 88.5874L336.246 90.2977V96.25H344.246ZM351.996 94.75L350.915 86.8234L350.89 86.8268L350.865 86.8304L351.996 94.75ZM372.996 94.75L371.606 102.628L371.643 102.635L371.681 102.641L372.996 94.75ZM380.496 97.75L375.696 104.15L375.696 104.15L380.496 97.75ZM384.996 104L377.505 106.809L377.615 107.101L377.747 107.383L384.996 104ZM376.246 208.75L372.154 201.876L372.071 201.925L371.989 201.977L376.246 208.75ZM355.246 217L353.494 209.194L353.4 209.215L353.306 209.239L355.246 217ZM303.996 217L301.935 224.73L301.956 224.735L301.977 224.741L303.996 217ZM284.496 207.75L279.665 214.127L279.665 214.127L284.496 207.75ZM271.746 191.75L264.451 195.033L264.466 195.068L264.482 195.102L271.746 191.75ZM267.246 96.25L269.545 103.913C270.613 103.592 272.707 103.158 276.127 102.67L274.996 94.75L273.865 86.8304C270.286 87.3417 267.213 87.9077 264.947 88.5874L267.246 96.25ZM274.996 94.75L276.077 102.677C279.373 102.227 282.761 102 286.246 102V94V86C282.064 86 277.953 86.2728 273.915 86.8234L274.996 94.75ZM286.246 94V102C289.567 102 292.336 102.228 294.606 102.628L295.996 94.75L297.386 86.8717C293.989 86.2723 290.259 86 286.246 86V94ZM295.996 94.75L294.681 102.641C296.687 102.976 297.92 103.568 298.696 104.15L303.496 97.75L308.296 91.35C305.072 88.9317 301.305 87.5245 297.311 86.8588L295.996 94.75ZM303.496 97.75L298.696 104.15C299.311 104.612 299.965 105.367 300.505 106.809L307.996 104L315.487 101.191C314.027 97.2994 311.681 93.8884 308.296 91.35L303.496 97.75ZM307.996 104L300.747 107.383C301.232 108.423 301.746 110.46 301.746 114H309.746H317.746C317.746 109.207 317.094 104.577 315.246 100.617L307.996 104ZM309.746 114H301.746V167.75H309.746H317.746V114H309.746ZM309.746 167.75H301.746C301.746 175.665 303.659 183.285 309.394 188.446L314.746 182.5L320.098 176.554C319.166 175.715 317.746 173.501 317.746 167.75H309.746ZM314.746 182.5L309.565 188.596C314.872 193.107 321.846 194.75 329.246 194.75V186.75V178.75C323.979 178.75 321.286 177.56 319.927 176.404L314.746 182.5ZM329.246 186.75V194.75C333.446 194.75 337.357 194.396 340.694 193.442L338.496 185.75L336.298 178.058C334.969 178.438 332.713 178.75 329.246 178.75V186.75ZM338.496 185.75L340.557 193.48C343.259 192.759 345.778 191.928 347.824 190.905L344.246 183.75L340.668 176.595C340.047 176.905 338.733 177.407 336.435 178.02L338.496 185.75ZM344.246 183.75H352.246V96.25H344.246H336.246V183.75H344.246ZM344.246 96.25L346.545 103.913C347.613 103.592 349.707 103.158 353.127 102.67L351.996 94.75L350.865 86.8304C347.286 87.3417 344.213 87.9077 341.947 88.5874L344.246 96.25ZM351.996 94.75L353.077 102.677C356.373 102.227 359.761 102 363.246 102V94V86C359.064 86 354.953 86.2728 350.915 86.8234L351.996 94.75ZM363.246 94V102C366.567 102 369.336 102.228 371.606 102.628L372.996 94.75L374.386 86.8717C370.989 86.2723 367.259 86 363.246 86V94ZM372.996 94.75L371.681 102.641C373.687 102.976 374.92 103.568 375.696 104.15L380.496 97.75L385.296 91.35C382.072 88.9317 378.305 87.5245 374.311 86.8588L372.996 94.75ZM380.496 97.75L375.696 104.15C376.312 104.612 376.965 105.367 377.505 106.809L384.996 104L392.487 101.191C391.027 97.2994 388.681 93.8884 385.296 91.35L380.496 97.75ZM384.996 104L377.747 107.383C378.232 108.423 378.746 110.46 378.746 114H386.746H394.746C394.746 109.207 394.094 104.577 392.246 100.617L384.996 104ZM386.746 114H378.746V190H386.746H394.746V114H386.746ZM386.746 190H378.746C378.746 195.593 376.663 199.192 372.154 201.876L376.246 208.75L380.338 215.624C389.829 209.975 394.746 201.074 394.746 190H386.746ZM376.246 208.75L371.989 201.977C367.071 205.068 360.957 207.519 353.494 209.194L355.246 217L356.998 224.806C365.868 222.815 373.755 219.765 380.503 215.523L376.246 208.75ZM355.246 217L353.306 209.239C346.028 211.058 337.939 212 328.996 212V220V228C339.053 228 348.464 226.942 357.186 224.761L355.246 217ZM328.996 220V212C320.587 212 312.941 211.066 306.015 209.259L303.996 217L301.977 224.741C310.385 226.934 319.405 228 328.996 228V220ZM303.996 217L306.057 209.27C299.435 207.504 293.903 204.84 289.327 201.373L284.496 207.75L279.665 214.127C286.089 218.993 293.557 222.496 301.935 224.73L303.996 217ZM284.496 207.75L289.327 201.373C284.914 198.03 281.481 193.751 279.01 188.398L271.746 191.75L264.482 195.102C268.011 202.749 273.078 209.137 279.665 214.127L284.496 207.75ZM271.746 191.75L279.041 188.467C276.616 183.076 275.246 176.253 275.246 167.75H267.246H259.246C259.246 177.913 260.877 187.09 264.451 195.033L271.746 191.75ZM267.246 167.75H275.246V96.25H267.246H259.246V167.75H267.246Z" fill="black" mask="url(#path-5-outside-3_3_26)"/>
<mask id="path-7-outside-4_3_26" maskUnits="userSpaceOnUse" x="394.163" y="54" width="150" height="172" fill="black">
<rect fill="white" x="394.163" y="54" width="150" height="172"/>
<path d="M446.671 159.75V215C444.838 215.5 441.921 216 437.921 216.5C433.921 217 430.005 217.25 426.171 217.25C422.338 217.25 418.921 216.917 415.921 216.25C413.088 215.75 410.671 214.75 408.671 213.25C406.671 211.75 405.171 209.667 404.171 207C403.171 204.333 402.671 200.833 402.671 196.5V64.5C404.505 64.1667 407.421 63.75 411.421 63.25C415.421 62.5833 419.255 62.25 422.921 62.25C426.755 62.25 430.088 62.5833 432.921 63.25C435.921 63.75 438.421 64.75 440.421 66.25C442.421 67.75 443.921 69.8333 444.921 72.5C445.921 75.1667 446.421 78.6667 446.421 83V122.75L498.421 63C509.755 63 517.838 65.1667 522.671 69.5C527.671 73.6667 530.171 78.6667 530.171 84.5C530.171 88.8333 529.088 92.9167 526.921 96.75C524.755 100.583 521.255 104.917 516.421 109.75L485.171 141C489.338 145.667 493.671 150.5 498.171 155.5C502.838 160.5 507.338 165.417 511.671 170.25C516.171 174.917 520.421 179.417 524.421 183.75C528.588 188.083 532.171 191.833 535.171 195C535.171 198.667 534.505 201.917 533.171 204.75C531.838 207.583 530.005 210 527.671 212C525.505 214 523.005 215.5 520.171 216.5C517.338 217.5 514.338 218 511.171 218C504.338 218 498.755 216.333 494.421 213C490.088 209.5 485.921 205.417 481.921 200.75L446.671 159.75Z"/>
</mask>
<path d="M446.671 159.75V215C444.838 215.5 441.921 216 437.921 216.5C433.921 217 430.005 217.25 426.171 217.25C422.338 217.25 418.921 216.917 415.921 216.25C413.088 215.75 410.671 214.75 408.671 213.25C406.671 211.75 405.171 209.667 404.171 207C403.171 204.333 402.671 200.833 402.671 196.5V64.5C404.505 64.1667 407.421 63.75 411.421 63.25C415.421 62.5833 419.255 62.25 422.921 62.25C426.755 62.25 430.088 62.5833 432.921 63.25C435.921 63.75 438.421 64.75 440.421 66.25C442.421 67.75 443.921 69.8333 444.921 72.5C445.921 75.1667 446.421 78.6667 446.421 83V122.75L498.421 63C509.755 63 517.838 65.1667 522.671 69.5C527.671 73.6667 530.171 78.6667 530.171 84.5C530.171 88.8333 529.088 92.9167 526.921 96.75C524.755 100.583 521.255 104.917 516.421 109.75L485.171 141C489.338 145.667 493.671 150.5 498.171 155.5C502.838 160.5 507.338 165.417 511.671 170.25C516.171 174.917 520.421 179.417 524.421 183.75C528.588 188.083 532.171 191.833 535.171 195C535.171 198.667 534.505 201.917 533.171 204.75C531.838 207.583 530.005 210 527.671 212C525.505 214 523.005 215.5 520.171 216.5C517.338 217.5 514.338 218 511.171 218C504.338 218 498.755 216.333 494.421 213C490.088 209.5 485.921 205.417 481.921 200.75L446.671 159.75Z" fill="#0077FF"/>
<path d="M446.671 159.75L452.738 154.535L438.671 138.174V159.75H446.671ZM446.671 215L448.776 222.718L454.671 221.11V215H446.671ZM437.921 216.5L438.914 224.438L438.914 224.438L437.921 216.5ZM415.921 216.25L417.657 208.441L417.485 208.402L417.312 208.372L415.921 216.25ZM408.671 213.25L403.871 219.65L403.871 219.65L408.671 213.25ZM404.171 207L396.681 209.809L396.681 209.809L404.171 207ZM402.671 64.5L401.24 56.629L394.671 57.8234V64.5H402.671ZM411.421 63.25L412.414 71.1882L412.576 71.168L412.737 71.1412L411.421 63.25ZM432.921 63.25L431.089 71.0373L431.346 71.0978L431.606 71.1412L432.921 63.25ZM440.421 66.25L435.621 72.65L435.621 72.65L440.421 66.25ZM444.921 72.5L437.431 75.309L437.431 75.309L444.921 72.5ZM446.421 122.75H438.421V144.128L452.456 128.002L446.421 122.75ZM498.421 63V55H494.778L492.387 57.7481L498.421 63ZM522.671 69.5L517.331 75.4565L517.439 75.5531L517.55 75.6458L522.671 69.5ZM526.921 96.75L519.957 92.8135L519.957 92.8135L526.921 96.75ZM516.421 109.75L522.078 115.407L522.078 115.407L516.421 109.75ZM485.171 141L479.514 135.343L474.169 140.689L479.204 146.328L485.171 141ZM498.171 155.5L492.225 160.852L492.273 160.906L492.323 160.959L498.171 155.5ZM511.671 170.25L505.715 175.59L505.812 175.699L505.913 175.803L511.671 170.25ZM524.421 183.75L518.543 189.176L518.598 189.236L518.655 189.295L524.421 183.75ZM535.171 195H543.171V191.812L540.979 189.498L535.171 195ZM533.171 204.75L525.933 201.344L525.933 201.344L533.171 204.75ZM527.671 212L522.465 205.926L522.353 206.022L522.245 206.122L527.671 212ZM494.421 213L489.395 219.224L489.468 219.283L489.544 219.341L494.421 213ZM481.921 200.75L487.995 195.544L487.988 195.535L481.921 200.75ZM446.671 159.75H438.671V215H446.671H454.671V159.75H446.671ZM446.671 215L444.566 207.282C443.314 207.623 440.873 208.069 436.929 208.562L437.921 216.5L438.914 224.438C442.97 223.931 446.362 223.377 448.776 222.718L446.671 215ZM437.921 216.5L436.929 208.562C433.241 209.023 429.656 209.25 426.171 209.25V217.25V225.25C430.353 225.25 434.601 224.977 438.914 224.438L437.921 216.5ZM426.171 217.25V209.25C422.785 209.25 419.967 208.954 417.657 208.441L415.921 216.25L414.186 224.059C417.875 224.879 421.891 225.25 426.171 225.25V217.25ZM415.921 216.25L417.312 208.372C415.528 208.057 414.325 207.49 413.471 206.85L408.671 213.25L403.871 219.65C407.018 222.01 410.648 223.443 414.531 224.128L415.921 216.25ZM408.671 213.25L413.471 206.85C412.856 206.388 412.203 205.633 411.662 204.191L404.171 207L396.681 209.809C398.14 213.701 400.487 217.112 403.871 219.65L408.671 213.25ZM404.171 207L411.662 204.191C411.127 202.764 410.671 200.322 410.671 196.5H402.671H394.671C394.671 201.344 395.216 205.903 396.681 209.809L404.171 207ZM402.671 196.5H410.671V64.5H402.671H394.671V196.5H402.671ZM402.671 64.5L404.102 72.371C405.703 72.08 408.432 71.6859 412.414 71.1882L411.421 63.25L410.429 55.3118C406.41 55.8141 403.307 56.2533 401.24 56.629L402.671 64.5ZM411.421 63.25L412.737 71.1412C416.347 70.5394 419.739 70.25 422.921 70.25V62.25V54.25C418.771 54.25 414.496 54.6272 410.106 55.3588L411.421 63.25ZM422.921 62.25V70.25C426.32 70.25 429.011 70.5483 431.089 71.0373L432.921 63.25L434.754 55.4627C431.165 54.6183 427.189 54.25 422.921 54.25V62.25ZM432.921 63.25L431.606 71.1412C433.612 71.4755 434.846 72.0683 435.621 72.65L440.421 66.25L445.221 59.85C441.997 57.4317 438.23 56.0245 434.236 55.3588L432.921 63.25ZM440.421 66.25L435.621 72.65C436.237 73.1116 436.89 73.8673 437.431 75.309L444.921 72.5L452.412 69.691C450.953 65.7994 448.606 62.3884 445.221 59.85L440.421 66.25ZM444.921 72.5L437.431 75.309C437.966 76.7363 438.421 79.1777 438.421 83H446.421H454.421C454.421 78.1557 453.877 73.597 452.412 69.691L444.921 72.5ZM446.421 83H438.421V122.75H446.421H454.421V83H446.421ZM446.421 122.75L452.456 128.002L504.456 68.2519L498.421 63L492.387 57.7481L440.387 117.498L446.421 122.75ZM498.421 63V71C509.124 71 514.725 73.1204 517.331 75.4565L522.671 69.5L528.012 63.5434C520.951 57.2129 510.385 55 498.421 55V63ZM522.671 69.5L517.55 75.6458C520.964 78.4909 522.171 81.3344 522.171 84.5H530.171H538.171C538.171 75.9989 534.379 68.8424 527.793 63.3542L522.671 69.5ZM530.171 84.5H522.171C522.171 87.4307 521.456 90.1608 519.957 92.8135L526.921 96.75L533.886 100.686C536.72 95.6725 538.171 90.236 538.171 84.5H530.171ZM526.921 96.75L519.957 92.8135C518.286 95.7705 515.335 99.5228 510.764 104.093L516.421 109.75L522.078 115.407C527.174 110.311 531.224 105.396 533.886 100.686L526.921 96.75ZM516.421 109.75L510.764 104.093L479.514 135.343L485.171 141L490.828 146.657L522.078 115.407L516.421 109.75ZM485.171 141L479.204 146.328C483.378 151.003 487.718 155.844 492.225 160.852L498.171 155.5L504.118 150.148C499.624 145.156 495.298 140.33 491.139 135.672L485.171 141ZM498.171 155.5L492.323 160.959C496.955 165.922 501.419 170.799 505.715 175.59L511.671 170.25L517.628 164.91C513.257 160.034 508.721 155.078 504.02 150.041L498.171 155.5ZM511.671 170.25L505.913 175.803C510.376 180.432 514.586 184.89 518.543 189.176L524.421 183.75L530.3 178.324C526.257 173.944 521.967 169.401 517.43 164.697L511.671 170.25ZM524.421 183.75L518.655 189.295C522.812 193.619 526.381 197.354 529.364 200.502L535.171 195L540.979 189.498C537.961 186.313 534.364 182.548 530.188 178.205L524.421 183.75ZM535.171 195H527.171C527.171 197.689 526.686 199.743 525.933 201.344L533.171 204.75L540.41 208.156C542.323 204.09 543.171 199.644 543.171 195H535.171ZM533.171 204.75L525.933 201.344C525.071 203.174 523.923 204.676 522.465 205.926L527.671 212L532.878 218.074C536.086 215.324 538.605 211.993 540.41 208.156L533.171 204.75ZM527.671 212L522.245 206.122C520.892 207.37 519.337 208.311 517.509 208.956L520.171 216.5L522.834 224.044C526.672 222.689 530.117 220.63 533.098 217.878L527.671 212ZM520.171 216.5L517.509 208.956C515.576 209.638 513.48 210 511.171 210V218V226C515.196 226 519.1 225.362 522.834 224.044L520.171 216.5ZM511.171 218V210C505.653 210 501.915 208.672 499.299 206.659L494.421 213L489.544 219.341C495.594 223.995 503.023 226 511.171 226V218ZM494.421 213L499.448 206.776C495.531 203.612 491.71 199.878 487.995 195.544L481.921 200.75L475.847 205.956C480.132 210.956 484.645 215.388 489.395 219.224L494.421 213ZM481.921 200.75L487.988 195.535L452.738 154.535L446.671 159.75L440.605 164.965L475.855 205.965L481.921 200.75Z" fill="black" mask="url(#path-7-outside-4_3_26)"/>
<mask id="path-9-outside-5_3_26" maskUnits="userSpaceOnUse" x="538.558" y="30" width="64" height="196" fill="black">
<rect fill="white" x="538.558" y="30" width="64" height="196"/>
<path d="M547.443 60.75C547.443 54.4167 549.526 49.0833 553.693 44.75C558.026 40.4167 563.693 38.25 570.693 38.25C577.693 38.25 583.276 40.4167 587.443 44.75C591.776 49.0833 593.943 54.4167 593.943 60.75C593.943 67.0833 591.776 72.4167 587.443 76.75C583.276 81.0833 577.693 83.25 570.693 83.25C563.693 83.25 558.026 81.0833 553.693 76.75C549.526 72.4167 547.443 67.0833 547.443 60.75ZM591.943 215.75C590.109 216.083 587.359 216.5 583.693 217C580.193 217.667 576.609 218 572.943 218C569.276 218 565.943 217.75 562.943 217.25C560.109 216.75 557.693 215.75 555.693 214.25C553.693 212.75 552.109 210.75 550.943 208.25C549.943 205.583 549.443 202.167 549.443 198V96.25C551.276 95.9167 553.943 95.5 557.443 95C561.109 94.3333 564.776 94 568.443 94C572.109 94 575.359 94.25 578.193 94.75C581.193 95.25 583.693 96.25 585.693 97.75C587.693 99.25 589.193 101.333 590.193 104C591.359 106.5 591.943 109.833 591.943 114V215.75Z"/>
</mask>
<path d="M547.443 60.75C547.443 54.4167 549.526 49.0833 553.693 44.75C558.026 40.4167 563.693 38.25 570.693 38.25C577.693 38.25 583.276 40.4167 587.443 44.75C591.776 49.0833 593.943 54.4167 593.943 60.75C593.943 67.0833 591.776 72.4167 587.443 76.75C583.276 81.0833 577.693 83.25 570.693 83.25C563.693 83.25 558.026 81.0833 553.693 76.75C549.526 72.4167 547.443 67.0833 547.443 60.75ZM591.943 215.75C590.109 216.083 587.359 216.5 583.693 217C580.193 217.667 576.609 218 572.943 218C569.276 218 565.943 217.75 562.943 217.25C560.109 216.75 557.693 215.75 555.693 214.25C553.693 212.75 552.109 210.75 550.943 208.25C549.943 205.583 549.443 202.167 549.443 198V96.25C551.276 95.9167 553.943 95.5 557.443 95C561.109 94.3333 564.776 94 568.443 94C572.109 94 575.359 94.25 578.193 94.75C581.193 95.25 583.693 96.25 585.693 97.75C587.693 99.25 589.193 101.333 590.193 104C591.359 106.5 591.943 109.833 591.943 114V215.75Z" fill="#01D512"/>
<path d="M553.693 44.75L548.036 39.0931L547.98 39.1486L547.926 39.2051L553.693 44.75ZM587.443 44.75L581.676 50.2949L581.73 50.3514L581.786 50.4068L587.443 44.75ZM587.443 76.75L581.786 71.0931L581.73 71.1486L581.676 71.2051L587.443 76.75ZM553.693 76.75L547.926 82.2949L547.98 82.3514L548.036 82.4068L553.693 76.75ZM591.943 215.75L593.374 223.621L599.943 222.427V215.75H591.943ZM583.693 217L582.612 209.073L582.403 209.102L582.196 209.141L583.693 217ZM562.943 217.25L561.552 225.128L561.59 225.135L561.627 225.141L562.943 217.25ZM555.693 214.25L550.893 220.65L550.893 220.65L555.693 214.25ZM550.943 208.25L543.452 211.059L543.561 211.351L543.693 211.633L550.943 208.25ZM549.443 96.25L548.012 88.379L541.443 89.5734V96.25H549.443ZM557.443 95L558.574 102.92L558.724 102.898L558.874 102.871L557.443 95ZM578.193 94.75L576.802 102.628L576.84 102.635L576.877 102.641L578.193 94.75ZM585.693 97.75L580.893 104.15L580.893 104.15L585.693 97.75ZM590.193 104L582.702 106.809L582.811 107.101L582.943 107.383L590.193 104ZM547.443 60.75H555.443C555.443 56.3618 556.808 53.052 559.459 50.2949L553.693 44.75L547.926 39.2051C542.244 45.1146 539.443 52.4715 539.443 60.75H547.443ZM553.693 44.75L559.349 50.4068C561.966 47.7908 565.486 46.25 570.693 46.25V38.25V30.25C561.899 30.25 554.086 33.0425 548.036 39.0931L553.693 44.75ZM570.693 38.25V46.25C575.905 46.25 579.267 47.79 581.676 50.2949L587.443 44.75L593.209 39.2051C587.284 33.0433 579.48 30.25 570.693 30.25V38.25ZM587.443 44.75L581.786 50.4068C584.564 53.1847 585.943 56.459 585.943 60.75H593.943H601.943C601.943 52.3743 598.988 44.9819 593.099 39.0931L587.443 44.75ZM593.943 60.75H585.943C585.943 65.0409 584.564 68.3153 581.786 71.0931L587.443 76.75L593.099 82.4068C598.988 76.518 601.943 69.1257 601.943 60.75H593.943ZM587.443 76.75L581.676 71.2051C579.267 73.71 575.905 75.25 570.693 75.25V83.25V91.25C579.48 91.25 587.284 88.4567 593.209 82.2949L587.443 76.75ZM570.693 83.25V75.25C565.486 75.25 561.966 73.7092 559.349 71.0931L553.693 76.75L548.036 82.4068C554.086 88.4575 561.899 91.25 570.693 91.25V83.25ZM553.693 76.75L559.459 71.2051C556.808 68.448 555.443 65.1382 555.443 60.75H547.443H539.443C539.443 69.0285 542.244 76.3854 547.926 82.2949L553.693 76.75ZM591.943 215.75L590.512 207.879C588.859 208.18 586.251 208.577 582.612 209.073L583.693 217L584.774 224.927C588.467 224.423 591.36 223.987 593.374 223.621L591.943 215.75ZM583.693 217L582.196 209.141C579.203 209.711 576.122 210 572.943 210V218V226C577.097 226 581.182 225.622 585.19 224.859L583.693 217ZM572.943 218V210C569.63 210 566.746 209.773 564.258 209.359L562.943 217.25L561.627 225.141C565.14 225.727 568.922 226 572.943 226V218ZM562.943 217.25L564.333 209.372C562.549 209.057 561.346 208.49 560.493 207.85L555.693 214.25L550.893 220.65C554.039 223.01 557.669 224.443 561.552 225.128L562.943 217.25ZM555.693 214.25L560.493 207.85C559.65 207.218 558.861 206.301 558.192 204.867L550.943 208.25L543.693 211.633C545.357 215.199 547.735 218.282 550.893 220.65L555.693 214.25ZM550.943 208.25L558.433 205.441C557.888 203.986 557.443 201.611 557.443 198H549.443H541.443C541.443 202.722 541.998 207.181 543.452 211.059L550.943 208.25ZM549.443 198H557.443V96.25H549.443H541.443V198H549.443ZM549.443 96.25L550.874 104.121C552.555 103.815 555.103 103.416 558.574 102.92L557.443 95L556.311 87.0804C552.783 87.5845 549.997 88.0181 548.012 88.379L549.443 96.25ZM557.443 95L558.874 102.871C562.076 102.289 565.264 102 568.443 102V94V86C564.288 86 560.143 86.3779 556.012 87.129L557.443 95ZM568.443 94V102C571.763 102 574.533 102.228 576.802 102.628L578.193 94.75L579.583 86.8717C576.186 86.2723 572.455 86 568.443 86V94ZM578.193 94.75L576.877 102.641C578.884 102.976 580.117 103.568 580.893 104.15L585.693 97.75L590.493 91.35C587.268 88.9317 583.502 87.5245 579.508 86.8588L578.193 94.75ZM585.693 97.75L580.893 104.15C581.508 104.612 582.161 105.367 582.702 106.809L590.193 104L597.683 101.191C596.224 97.2994 593.877 93.8884 590.493 91.35L585.693 97.75ZM590.193 104L582.943 107.383C583.428 108.423 583.943 110.46 583.943 114H591.943H599.943C599.943 109.207 599.29 104.577 597.442 100.617L590.193 104ZM591.943 114H583.943V215.75H591.943H599.943V114H591.943Z" fill="black" mask="url(#path-9-outside-5_3_26)"/>
<mask id="path-11-outside-6_3_26" maskUnits="userSpaceOnUse" x="598.302" y="42" width="142" height="186" fill="black">
<rect fill="white" x="598.302" y="42" width="142" height="186"/>
<path d="M606.973 155.25C606.973 144.25 608.64 134.75 611.973 126.75C615.306 118.583 619.89 111.833 625.723 106.5C631.723 101.167 638.64 97.25 646.473 94.75C654.473 92.0833 663.056 90.75 672.223 90.75C675.556 90.75 678.806 91.0833 681.973 91.75C685.14 92.25 687.723 92.9167 689.723 93.75V53.25C691.39 52.75 694.056 52.25 697.723 51.75C701.39 51.0833 705.14 50.75 708.973 50.75C712.64 50.75 715.89 51 718.723 51.5C721.723 52 724.223 53 726.223 54.5C728.223 56 729.723 58.0833 730.723 60.75C731.723 63.25 732.223 66.5833 732.223 70.75V189.25C732.223 197.083 728.556 203.333 721.223 208C716.39 211.167 710.14 213.917 702.473 216.25C694.806 218.75 685.973 220 675.973 220C665.14 220 655.39 218.5 646.723 215.5C638.223 212.5 630.973 208.167 624.973 202.5C619.14 196.833 614.64 190.083 611.473 182.25C608.473 174.25 606.973 165.25 606.973 155.25ZM677.973 124C668.973 124 662.056 126.583 657.223 131.75C652.39 136.917 649.973 144.75 649.973 155.25C649.973 165.583 652.223 173.417 656.723 178.75C661.223 183.917 667.723 186.5 676.223 186.5C679.223 186.5 681.89 186.083 684.223 185.25C686.723 184.25 688.64 183.167 689.973 182V127C686.64 125 682.64 124 677.973 124Z"/>
</mask>
<path d="M606.973 155.25C606.973 144.25 608.64 134.75 611.973 126.75C615.306 118.583 619.89 111.833 625.723 106.5C631.723 101.167 638.64 97.25 646.473 94.75C654.473 92.0833 663.056 90.75 672.223 90.75C675.556 90.75 678.806 91.0833 681.973 91.75C685.14 92.25 687.723 92.9167 689.723 93.75V53.25C691.39 52.75 694.056 52.25 697.723 51.75C701.39 51.0833 705.14 50.75 708.973 50.75C712.64 50.75 715.89 51 718.723 51.5C721.723 52 724.223 53 726.223 54.5C728.223 56 729.723 58.0833 730.723 60.75C731.723 63.25 732.223 66.5833 732.223 70.75V189.25C732.223 197.083 728.556 203.333 721.223 208C716.39 211.167 710.14 213.917 702.473 216.25C694.806 218.75 685.973 220 675.973 220C665.14 220 655.39 218.5 646.723 215.5C638.223 212.5 630.973 208.167 624.973 202.5C619.14 196.833 614.64 190.083 611.473 182.25C608.473 174.25 606.973 165.25 606.973 155.25ZM677.973 124C668.973 124 662.056 126.583 657.223 131.75C652.39 136.917 649.973 144.75 649.973 155.25C649.973 165.583 652.223 173.417 656.723 178.75C661.223 183.917 667.723 186.5 676.223 186.5C679.223 186.5 681.89 186.083 684.223 185.25C686.723 184.25 688.64 183.167 689.973 182V127C686.64 125 682.64 124 677.973 124Z" fill="#0077FF"/>
<path d="M611.973 126.75L619.358 129.827L619.369 129.8L619.38 129.773L611.973 126.75ZM625.723 106.5L620.408 100.521L620.366 100.558L620.325 100.596L625.723 106.5ZM646.473 94.75L648.905 102.371L648.954 102.356L649.003 102.339L646.473 94.75ZM681.973 91.75L680.325 99.5784L680.524 99.6203L680.725 99.6521L681.973 91.75ZM689.723 93.75L686.646 101.135L697.723 105.75V93.75H689.723ZM689.723 53.25L687.424 45.5874L681.723 47.2978V53.25H689.723ZM697.723 51.75L698.804 59.6766L698.98 59.6527L699.154 59.621L697.723 51.75ZM718.723 51.5L717.333 59.3783L717.37 59.3849L717.408 59.3911L718.723 51.5ZM726.223 54.5L721.423 60.9L721.423 60.9L726.223 54.5ZM730.723 60.75L723.232 63.559L723.263 63.6404L723.295 63.7211L730.723 60.75ZM721.223 208L716.928 201.251L716.883 201.279L716.839 201.308L721.223 208ZM702.473 216.25L700.144 208.597L700.068 208.62L699.993 208.644L702.473 216.25ZM646.723 215.5L644.06 223.044L644.083 223.052L644.106 223.06L646.723 215.5ZM624.973 202.5L619.399 208.238L619.439 208.277L619.48 208.316L624.973 202.5ZM611.473 182.25L603.982 185.059L604.018 185.154L604.056 185.248L611.473 182.25ZM657.223 131.75L663.065 137.215L663.065 137.215L657.223 131.75ZM656.723 178.75L650.609 183.909L650.649 183.957L650.69 184.004L656.723 178.75ZM684.223 185.25L686.914 192.784L687.055 192.734L687.194 192.678L684.223 185.25ZM689.973 182L695.241 188.021L697.973 185.63V182H689.973ZM689.973 127H697.973V122.47L694.089 120.14L689.973 127ZM606.973 155.25H614.973C614.973 145.033 616.524 136.628 619.358 129.827L611.973 126.75L604.588 123.673C600.755 132.872 598.973 143.467 598.973 155.25H606.973ZM611.973 126.75L619.38 129.773C622.318 122.576 626.259 116.849 631.121 112.404L625.723 106.5L620.325 100.596C613.52 106.817 608.295 114.591 604.566 123.727L611.973 126.75ZM625.723 106.5L631.038 112.479C636.182 107.907 642.11 104.54 648.905 102.371L646.473 94.75L644.041 87.1287C635.169 89.9601 627.264 94.4263 620.408 100.521L625.723 106.5ZM646.473 94.75L649.003 102.339C656.119 99.9673 663.841 98.75 672.223 98.75V90.75V82.75C662.271 82.75 652.827 84.1993 643.943 87.1605L646.473 94.75ZM672.223 90.75V98.75C675.019 98.75 677.716 99.0292 680.325 99.5784L681.973 91.75L683.621 83.9216C679.896 83.1375 676.093 82.75 672.223 82.75V90.75ZM681.973 91.75L680.725 99.6521C683.533 100.095 685.44 100.632 686.646 101.135L689.723 93.75L692.8 86.3654C690.006 85.2011 686.746 84.4046 683.221 83.8479L681.973 91.75ZM689.723 93.75H697.723V53.25H689.723H681.723V93.75H689.723ZM689.723 53.25L692.022 60.9126C693.053 60.6031 695.197 60.1684 698.804 59.6766L697.723 51.75L696.642 43.8234C692.915 44.3316 689.726 44.8969 687.424 45.5874L689.723 53.25ZM697.723 51.75L699.154 59.621C702.335 59.0426 705.606 58.75 708.973 58.75V50.75V42.75C704.673 42.75 700.444 43.1241 696.292 43.879L697.723 51.75ZM708.973 50.75V58.75C712.293 58.75 715.063 58.9777 717.333 59.3783L718.723 51.5L720.113 43.6217C716.716 43.0223 712.986 42.75 708.973 42.75V50.75ZM718.723 51.5L717.408 59.3911C719.414 59.7255 720.647 60.3183 721.423 60.9L726.223 54.5L731.023 48.1C727.799 45.6817 724.032 44.2745 720.038 43.6088L718.723 51.5ZM726.223 54.5L721.423 60.9C722.038 61.3616 722.692 62.1173 723.232 63.559L730.723 60.75L738.214 57.941C736.754 54.0494 734.407 50.6384 731.023 48.1L726.223 54.5ZM730.723 60.75L723.295 63.7211C723.768 64.9039 724.223 67.1037 724.223 70.75H732.223H740.223C740.223 66.063 739.678 61.5961 738.151 57.7789L730.723 60.75ZM732.223 70.75H724.223V189.25H732.223H740.223V70.75H732.223ZM732.223 189.25H724.223C724.223 194.01 722.254 197.861 716.928 201.251L721.223 208L725.518 214.749C734.858 208.805 740.223 200.157 740.223 189.25H732.223ZM721.223 208L716.839 201.308C712.833 203.932 707.342 206.406 700.144 208.597L702.473 216.25L704.802 223.903C712.937 221.427 719.946 218.401 725.607 214.692L721.223 208ZM702.473 216.25L699.993 208.644C693.292 210.829 685.324 212 675.973 212V220V228C686.621 228 696.32 226.671 704.953 223.856L702.473 216.25ZM675.973 220V212C665.873 212 657.028 210.601 649.34 207.94L646.723 215.5L644.106 223.06C653.751 226.399 664.406 228 675.973 228V220ZM646.723 215.5L649.385 207.956C641.841 205.293 635.581 201.515 630.466 196.684L624.973 202.5L619.48 208.316C626.365 214.818 634.605 219.707 644.06 223.044L646.723 215.5ZM624.973 202.5L630.547 196.762C625.543 191.901 621.656 186.095 618.89 179.252L611.473 182.25L604.056 185.248C607.623 194.072 612.736 201.766 619.399 208.238L624.973 202.5ZM611.473 182.25L618.964 179.441C616.352 172.478 614.973 164.451 614.973 155.25H606.973H598.973C598.973 166.049 600.593 176.022 603.982 185.059L611.473 182.25ZM677.973 124V116C667.398 116 658.114 119.087 651.381 126.285L657.223 131.75L663.065 137.215C665.998 134.08 670.548 132 677.973 132V124ZM657.223 131.75L651.381 126.285C644.618 133.513 641.973 143.686 641.973 155.25H649.973H657.973C657.973 145.814 660.161 140.32 663.065 137.215L657.223 131.75ZM649.973 155.25H641.973C641.973 166.591 644.423 176.578 650.609 183.909L656.723 178.75L662.837 173.591C660.022 170.255 657.973 164.575 657.973 155.25H649.973ZM656.723 178.75L650.69 184.004C657.065 191.324 666.012 194.5 676.223 194.5V186.5V178.5C669.433 178.5 665.381 176.51 662.756 173.496L656.723 178.75ZM676.223 186.5V194.5C679.953 194.5 683.556 193.983 686.914 192.784L684.223 185.25L681.532 177.716C680.223 178.184 678.493 178.5 676.223 178.5V186.5ZM684.223 185.25L687.194 192.678C690.143 191.498 692.97 190.008 695.241 188.021L689.973 182L684.705 175.979C684.309 176.326 683.302 177.002 681.252 177.822L684.223 185.25ZM689.973 182H697.973V127H689.973H681.973V182H689.973ZM689.973 127L694.089 120.14C689.284 117.257 683.798 116 677.973 116V124V132C681.482 132 683.995 132.743 685.857 133.86L689.973 127Z" fill="black" mask="url(#path-11-outside-6_3_26)"/>
<mask id="path-13-outside-7_3_26" maskUnits="userSpaceOnUse" x="737.326" y="82" width="123" height="147" fill="black">
<rect fill="white" x="737.326" y="82" width="123" height="147"/>
<path d="M851.465 179.75C851.465 192.417 846.715 202.333 837.215 209.5C827.715 216.667 813.715 220.25 795.215 220.25C788.215 220.25 781.715 219.75 775.715 218.75C769.715 217.75 764.548 216.25 760.215 214.25C756.048 212.083 752.715 209.417 750.215 206.25C747.882 203.083 746.715 199.333 746.715 195C746.715 191 747.548 187.667 749.215 185C750.882 182.167 752.882 179.833 755.215 178C760.048 180.667 765.548 183.083 771.715 185.25C778.048 187.25 785.298 188.25 793.465 188.25C798.632 188.25 802.548 187.5 805.215 186C808.048 184.5 809.465 182.5 809.465 180C809.465 177.667 808.465 175.833 806.465 174.5C804.465 173.167 801.132 172.083 796.465 171.25L788.965 169.75C774.465 166.917 763.632 162.5 756.465 156.5C749.465 150.333 745.965 141.583 745.965 130.25C745.965 124.083 747.298 118.5 749.965 113.5C752.632 108.5 756.382 104.333 761.215 101C766.048 97.6667 771.798 95.0833 778.465 93.25C785.298 91.4167 792.798 90.5 800.965 90.5C807.132 90.5 812.882 91 818.215 92C823.715 92.8333 828.465 94.1667 832.465 96C836.465 97.8333 839.632 100.25 841.965 103.25C844.298 106.083 845.465 109.5 845.465 113.5C845.465 117.333 844.715 120.667 843.215 123.5C841.882 126.167 840.132 128.417 837.965 130.25C836.632 129.417 834.632 128.583 831.965 127.75C829.298 126.75 826.382 125.917 823.215 125.25C820.048 124.417 816.798 123.75 813.465 123.25C810.298 122.75 807.382 122.5 804.715 122.5C799.215 122.5 794.965 123.167 791.965 124.5C788.965 125.667 787.465 127.583 787.465 130.25C787.465 132.083 788.298 133.583 789.965 134.75C791.632 135.917 794.798 137 799.465 138L807.215 139.75C823.215 143.417 834.548 148.5 841.215 155C848.048 161.333 851.465 169.583 851.465 179.75Z"/>
</mask>
<path d="M851.465 179.75C851.465 192.417 846.715 202.333 837.215 209.5C827.715 216.667 813.715 220.25 795.215 220.25C788.215 220.25 781.715 219.75 775.715 218.75C769.715 217.75 764.548 216.25 760.215 214.25C756.048 212.083 752.715 209.417 750.215 206.25C747.882 203.083 746.715 199.333 746.715 195C746.715 191 747.548 187.667 749.215 185C750.882 182.167 752.882 179.833 755.215 178C760.048 180.667 765.548 183.083 771.715 185.25C778.048 187.25 785.298 188.25 793.465 188.25C798.632 188.25 802.548 187.5 805.215 186C808.048 184.5 809.465 182.5 809.465 180C809.465 177.667 808.465 175.833 806.465 174.5C804.465 173.167 801.132 172.083 796.465 171.25L788.965 169.75C774.465 166.917 763.632 162.5 756.465 156.5C749.465 150.333 745.965 141.583 745.965 130.25C745.965 124.083 747.298 118.5 749.965 113.5C752.632 108.5 756.382 104.333 761.215 101C766.048 97.6667 771.798 95.0833 778.465 93.25C785.298 91.4167 792.798 90.5 800.965 90.5C807.132 90.5 812.882 91 818.215 92C823.715 92.8333 828.465 94.1667 832.465 96C836.465 97.8333 839.632 100.25 841.965 103.25C844.298 106.083 845.465 109.5 845.465 113.5C845.465 117.333 844.715 120.667 843.215 123.5C841.882 126.167 840.132 128.417 837.965 130.25C836.632 129.417 834.632 128.583 831.965 127.75C829.298 126.75 826.382 125.917 823.215 125.25C820.048 124.417 816.798 123.75 813.465 123.25C810.298 122.75 807.382 122.5 804.715 122.5C799.215 122.5 794.965 123.167 791.965 124.5C788.965 125.667 787.465 127.583 787.465 130.25C787.465 132.083 788.298 133.583 789.965 134.75C791.632 135.917 794.798 137 799.465 138L807.215 139.75C823.215 143.417 834.548 148.5 841.215 155C848.048 161.333 851.465 169.583 851.465 179.75Z" fill="#01D512"/>
<path d="M837.215 209.5L842.033 215.887L842.033 215.887L837.215 209.5ZM775.715 218.75L777.03 210.859L777.03 210.859L775.715 218.75ZM760.215 214.25L756.524 221.348L756.691 221.435L756.863 221.514L760.215 214.25ZM750.215 206.25L743.775 210.996L743.853 211.103L743.936 211.207L750.215 206.25ZM749.215 185L755.999 189.24L756.056 189.149L756.11 189.056L749.215 185ZM755.215 178L759.08 170.995L754.439 168.435L750.272 171.709L755.215 178ZM771.715 185.25L769.063 192.798L769.184 192.84L769.306 192.879L771.715 185.25ZM805.215 186L801.472 178.93L801.382 178.977L801.293 179.027L805.215 186ZM796.465 171.25L794.896 179.095L794.977 179.111L795.059 179.125L796.465 171.25ZM788.965 169.75L790.534 161.905L790.517 161.902L790.499 161.898L788.965 169.75ZM756.465 156.5L751.177 162.503L751.252 162.569L751.329 162.634L756.465 156.5ZM749.965 113.5L742.906 109.735L742.906 109.735L749.965 113.5ZM761.215 101L765.757 107.586L765.757 107.586L761.215 101ZM778.465 93.25L776.392 85.5233L776.368 85.5297L776.344 85.5364L778.465 93.25ZM818.215 92L816.741 99.863L816.878 99.8888L817.017 99.9097L818.215 92ZM832.465 96L829.132 103.273L829.132 103.273L832.465 96ZM841.965 103.25L835.65 108.162L835.719 108.25L835.79 108.336L841.965 103.25ZM843.215 123.5L836.145 119.757L836.101 119.839L836.06 119.922L843.215 123.5ZM837.965 130.25L833.725 137.034L838.676 140.128L843.133 136.357L837.965 130.25ZM831.965 127.75L829.156 135.241L829.365 135.319L829.579 135.386L831.965 127.75ZM823.215 125.25L821.179 132.987L821.372 133.037L821.567 133.078L823.215 125.25ZM813.465 123.25L812.217 131.152L812.248 131.157L812.278 131.161L813.465 123.25ZM791.965 124.5L794.865 131.956L795.041 131.887L795.214 131.81L791.965 124.5ZM789.965 134.75L785.377 141.304L785.377 141.304L789.965 134.75ZM799.465 138L801.227 130.196L801.184 130.187L801.141 130.178L799.465 138ZM807.215 139.75L809.002 131.952L808.99 131.949L808.977 131.946L807.215 139.75ZM841.215 155L835.63 160.728L835.703 160.799L835.777 160.867L841.215 155ZM851.465 179.75H843.465C843.465 190.095 839.748 197.568 832.397 203.113L837.215 209.5L842.033 215.887C853.682 207.098 859.465 194.739 859.465 179.75H851.465ZM837.215 209.5L832.397 203.113C824.866 208.795 812.88 212.25 795.215 212.25V220.25V228.25C814.549 228.25 830.564 224.538 842.033 215.887L837.215 209.5ZM795.215 220.25V212.25C788.591 212.25 782.536 211.777 777.03 210.859L775.715 218.75L774.4 226.641C780.894 227.723 787.839 228.25 795.215 228.25V220.25ZM775.715 218.75L777.03 210.859C771.552 209.946 767.104 208.618 763.567 206.986L760.215 214.25L756.863 221.514C761.993 223.882 767.878 225.554 774.4 226.641L775.715 218.75ZM760.215 214.25L763.906 207.152C760.58 205.423 758.187 203.437 756.494 201.293L750.215 206.25L743.936 211.207C747.243 215.397 751.516 218.744 756.524 221.348L760.215 214.25ZM750.215 206.25L756.655 201.504C755.438 199.853 754.715 197.808 754.715 195H746.715H738.715C738.715 200.858 740.325 206.314 743.775 210.996L750.215 206.25ZM746.715 195H754.715C754.715 192.096 755.317 190.332 755.999 189.24L749.215 185L742.431 180.76C739.78 185.002 738.715 189.904 738.715 195H746.715ZM749.215 185L756.11 189.056C757.326 186.99 758.689 185.444 760.158 184.291L755.215 178L750.272 171.709C747.074 174.222 744.438 177.343 742.32 180.944L749.215 185ZM755.215 178L751.35 185.005C756.635 187.92 762.552 190.51 769.063 192.798L771.715 185.25L774.367 177.702C768.545 175.657 763.461 173.413 759.08 170.995L755.215 178ZM771.715 185.25L769.306 192.879C776.574 195.174 784.661 196.25 793.465 196.25V188.25V180.25C785.935 180.25 779.523 179.326 774.124 177.621L771.715 185.25ZM793.465 188.25V196.25C799.173 196.25 804.712 195.462 809.137 192.973L805.215 186L801.293 179.027C800.385 179.538 798.09 180.25 793.465 180.25V188.25ZM805.215 186L808.958 193.07C813.542 190.643 817.465 186.331 817.465 180H809.465H801.465C801.465 179.859 801.487 179.639 801.569 179.379C801.651 179.117 801.767 178.903 801.874 178.751C802.078 178.463 802.11 178.592 801.472 178.93L805.215 186ZM809.465 180H817.465C817.465 174.896 815.048 170.607 810.903 167.844L806.465 174.5L802.027 181.156C802.113 181.214 801.9 181.088 801.692 180.706C801.596 180.53 801.533 180.357 801.498 180.211C801.464 180.069 801.465 179.99 801.465 180H809.465ZM806.465 174.5L810.903 167.844C807.47 165.555 802.772 164.25 797.871 163.375L796.465 171.25L795.059 179.125C799.491 179.917 801.46 180.778 802.027 181.156L806.465 174.5ZM796.465 171.25L798.034 163.405L790.534 161.905L788.965 169.75L787.396 177.595L794.896 179.095L796.465 171.25ZM788.965 169.75L790.499 161.898C776.63 159.188 767.297 155.135 761.6 150.366L756.465 156.5L751.329 162.634C759.966 169.865 772.3 174.645 787.431 177.602L788.965 169.75ZM756.465 156.5L761.753 150.497C756.843 146.172 753.965 139.823 753.965 130.25H745.965H737.965C737.965 143.344 742.087 154.495 751.177 162.503L756.465 156.5ZM745.965 130.25H753.965C753.965 125.278 755.029 121.006 757.024 117.265L749.965 113.5L742.906 109.735C739.568 115.994 737.965 122.889 737.965 130.25H745.965ZM749.965 113.5L757.024 117.265C759.067 113.434 761.937 110.22 765.757 107.586L761.215 101L756.673 94.4143C750.827 98.4462 746.196 103.566 742.906 109.735L749.965 113.5ZM761.215 101L765.757 107.586C769.734 104.843 774.634 102.6 780.586 100.964L778.465 93.25L776.344 85.5364C768.963 87.5662 762.362 90.4907 756.673 94.4143L761.215 101ZM778.465 93.25L780.538 100.977C786.601 99.3502 793.393 98.5 800.965 98.5V90.5V82.5C792.204 82.5 783.996 83.4832 776.392 85.5233L778.465 93.25ZM800.965 90.5V98.5C806.703 98.5 811.954 98.9655 816.741 99.863L818.215 92L819.689 84.137C813.809 83.0345 807.561 82.5 800.965 82.5V90.5ZM818.215 92L817.017 99.9097C821.964 100.659 825.961 101.819 829.132 103.273L832.465 96L835.798 88.7275C830.969 86.5139 825.466 85.0074 819.413 84.0903L818.215 92ZM832.465 96L829.132 103.273C832.148 104.655 834.223 106.326 835.65 108.162L841.965 103.25L848.28 98.3385C845.041 94.1739 840.782 91.0119 835.798 88.7275L832.465 96ZM841.965 103.25L835.79 108.336C836.835 109.605 837.465 111.177 837.465 113.5H845.465H853.465C853.465 107.823 851.762 102.562 848.14 98.1643L841.965 103.25ZM845.465 113.5H837.465C837.465 116.283 836.925 118.282 836.145 119.757L843.215 123.5L850.285 127.243C852.505 123.051 853.465 118.384 853.465 113.5H845.465ZM843.215 123.5L836.06 119.922C835.186 121.67 834.096 123.044 832.797 124.143L837.965 130.25L843.133 136.357C846.168 133.789 848.577 130.664 850.37 127.078L843.215 123.5ZM837.965 130.25L842.205 123.466C840.011 122.095 837.249 121.02 834.351 120.114L831.965 127.75L829.579 135.386C832.014 136.147 833.253 136.739 833.725 137.034L837.965 130.25ZM831.965 127.75L834.774 120.259C831.683 119.1 828.372 118.16 824.863 117.422L823.215 125.25L821.567 133.078C824.391 133.673 826.914 134.4 829.156 135.241L831.965 127.75ZM823.215 125.25L825.251 117.513C821.797 116.604 818.263 115.88 814.652 115.339L813.465 123.25L812.278 131.161C815.334 131.62 818.3 132.229 821.179 132.987L823.215 125.25ZM813.465 123.25L814.713 115.348C811.213 114.795 807.873 114.5 804.715 114.5V122.5V130.5C806.89 130.5 809.384 130.705 812.217 131.152L813.465 123.25ZM804.715 122.5V114.5C798.752 114.5 793.205 115.195 788.716 117.189L791.965 124.5L795.214 131.81C796.725 131.139 799.677 130.5 804.715 130.5V122.5ZM791.965 124.5L789.065 117.044C786.646 117.985 784.168 119.483 782.29 121.882C780.332 124.384 779.465 127.311 779.465 130.25H787.465H795.465C795.465 130.34 795.451 130.568 795.349 130.879C795.245 131.198 795.083 131.497 794.89 131.743C794.512 132.226 794.284 132.182 794.865 131.956L791.965 124.5ZM787.465 130.25H779.465C779.465 135.011 781.846 138.832 785.377 141.304L789.965 134.75L794.553 128.196C794.53 128.18 794.811 128.375 795.083 128.865C795.372 129.385 795.465 129.903 795.465 130.25H787.465ZM789.965 134.75L785.377 141.304C788.498 143.489 793.114 144.821 797.789 145.822L799.465 138L801.141 130.178C798.999 129.718 797.368 129.275 796.179 128.868C794.912 128.435 794.504 128.162 794.553 128.196L789.965 134.75ZM799.465 138L797.703 145.804L805.453 147.554L807.215 139.75L808.977 131.946L801.227 130.196L799.465 138ZM807.215 139.75L805.428 147.548C820.946 151.104 830.544 155.769 835.63 160.728L841.215 155L846.8 149.272C838.553 141.231 825.484 135.729 809.002 131.952L807.215 139.75ZM841.215 155L835.777 160.867C840.818 165.539 843.465 171.584 843.465 179.75H851.465H859.465C859.465 167.583 855.279 157.127 846.653 149.133L841.215 155Z" fill="black" mask="url(#path-13-outside-7_3_26)"/>
</svg>
